<mxfile host="app.diagrams.net" agent="Mozilla/5.0 (X11; Ubuntu; Linux x86_64; rv:132.0) Gecko/20100101 Firefox/132.0" version="24.8.6">
  <diagram name="Page-1" id="BIx33T_F9VOXXhtD0Nsd">
    <mxGraphModel dx="1274" dy="716" grid="1" gridSize="10" guides="1" tooltips="1" connect="1" arrows="1" fold="1" page="1" pageScale="1" pageWidth="850" pageHeight="1100" math="0" shadow="0">
      <root>
        <mxCell id="0" />
        <mxCell id="1" parent="0" />
        <mxCell id="DR26eDf_CHubESm0xT07-16" value="" style="rounded=0;whiteSpace=wrap;html=1;" parent="1" vertex="1">
          <mxGeometry x="600" y="110" width="430" height="340" as="geometry" />
        </mxCell>
        <mxCell id="DR26eDf_CHubESm0xT07-14" value="" style="rounded=0;whiteSpace=wrap;html=1;" parent="1" vertex="1">
          <mxGeometry x="65" y="125" width="360" height="435" as="geometry" />
        </mxCell>
        <mxCell id="ZViiMiX3mpQHfbn6vK1B-7" style="edgeStyle=orthogonalEdgeStyle;rounded=0;orthogonalLoop=1;jettySize=auto;html=1;exitX=0.5;exitY=1;exitDx=0;exitDy=0;" parent="1" edge="1">
          <mxGeometry relative="1" as="geometry">
            <mxPoint x="840" y="210" as="sourcePoint" />
          </mxGeometry>
        </mxCell>
        <mxCell id="DR26eDf_CHubESm0xT07-1" value="pay active subscription handler" style="rounded=1;whiteSpace=wrap;html=1;" parent="1" vertex="1">
          <mxGeometry x="275" y="220" width="120" height="60" as="geometry" />
        </mxCell>
        <mxCell id="DR26eDf_CHubESm0xT07-4" style="edgeStyle=orthogonalEdgeStyle;rounded=0;orthogonalLoop=1;jettySize=auto;html=1;" parent="1" source="DR26eDf_CHubESm0xT07-3" target="DR26eDf_CHubESm0xT07-1" edge="1">
          <mxGeometry relative="1" as="geometry" />
        </mxCell>
        <mxCell id="DR26eDf_CHubESm0xT07-3" value="&lt;div&gt;job schedule&amp;nbsp;&lt;/div&gt;&lt;div&gt;(1 per day)&lt;/div&gt;" style="rounded=1;whiteSpace=wrap;html=1;" parent="1" vertex="1">
          <mxGeometry x="95" y="220" width="120" height="60" as="geometry" />
        </mxCell>
        <mxCell id="DR26eDf_CHubESm0xT07-8" style="edgeStyle=orthogonalEdgeStyle;rounded=0;orthogonalLoop=1;jettySize=auto;html=1;entryX=0;entryY=0.5;entryDx=0;entryDy=0;" parent="1" source="DR26eDf_CHubESm0xT07-5" target="DR26eDf_CHubESm0xT07-7" edge="1">
          <mxGeometry relative="1" as="geometry" />
        </mxCell>
        <mxCell id="DR26eDf_CHubESm0xT07-5" value="queue" style="shape=cylinder3;whiteSpace=wrap;html=1;boundedLbl=1;backgroundOutline=1;size=15;rotation=-90;" parent="1" vertex="1">
          <mxGeometry x="490" y="210" width="60" height="80" as="geometry" />
        </mxCell>
        <mxCell id="DR26eDf_CHubESm0xT07-6" style="edgeStyle=orthogonalEdgeStyle;rounded=0;orthogonalLoop=1;jettySize=auto;html=1;" parent="1" source="DR26eDf_CHubESm0xT07-1" target="DR26eDf_CHubESm0xT07-5" edge="1">
          <mxGeometry relative="1" as="geometry">
            <mxPoint x="410" y="250" as="targetPoint" />
          </mxGeometry>
        </mxCell>
        <mxCell id="DR26eDf_CHubESm0xT07-13" style="edgeStyle=orthogonalEdgeStyle;rounded=0;orthogonalLoop=1;jettySize=auto;html=1;entryX=0;entryY=0.5;entryDx=0;entryDy=0;" parent="1" source="DR26eDf_CHubESm0xT07-7" target="DR26eDf_CHubESm0xT07-9" edge="1">
          <mxGeometry relative="1" as="geometry" />
        </mxCell>
        <mxCell id="DR26eDf_CHubESm0xT07-7" value="consumer" style="rounded=1;whiteSpace=wrap;html=1;" parent="1" vertex="1">
          <mxGeometry x="650" y="220" width="120" height="60" as="geometry" />
        </mxCell>
        <mxCell id="DR26eDf_CHubESm0xT07-20" value="" style="edgeStyle=orthogonalEdgeStyle;rounded=0;orthogonalLoop=1;jettySize=auto;html=1;" parent="1" source="DR26eDf_CHubESm0xT07-9" target="DR26eDf_CHubESm0xT07-19" edge="1">
          <mxGeometry relative="1" as="geometry" />
        </mxCell>
        <mxCell id="uqwqq6Uy4NkdufYGTmNp-5" style="edgeStyle=orthogonalEdgeStyle;rounded=0;orthogonalLoop=1;jettySize=auto;html=1;entryX=0.5;entryY=0;entryDx=0;entryDy=0;" parent="1" source="DR26eDf_CHubESm0xT07-9" target="DR26eDf_CHubESm0xT07-23" edge="1">
          <mxGeometry relative="1" as="geometry">
            <Array as="points">
              <mxPoint x="910" y="300" />
              <mxPoint x="710" y="300" />
            </Array>
          </mxGeometry>
        </mxCell>
        <mxCell id="uqwqq6Uy4NkdufYGTmNp-6" value="Error" style="edgeLabel;html=1;align=center;verticalAlign=middle;resizable=0;points=[];" parent="uqwqq6Uy4NkdufYGTmNp-5" vertex="1" connectable="0">
          <mxGeometry x="-0.096" y="1" relative="1" as="geometry">
            <mxPoint x="-2" y="-1" as="offset" />
          </mxGeometry>
        </mxCell>
        <mxCell id="DR26eDf_CHubESm0xT07-9" value="pay handler" style="rounded=1;whiteSpace=wrap;html=1;" parent="1" vertex="1">
          <mxGeometry x="850" y="220" width="120" height="60" as="geometry" />
        </mxCell>
        <mxCell id="DR26eDf_CHubESm0xT07-15" value="Subscription module" style="text;html=1;align=center;verticalAlign=middle;whiteSpace=wrap;rounded=0;" parent="1" vertex="1">
          <mxGeometry x="170" y="125" width="150" height="30" as="geometry" />
        </mxCell>
        <mxCell id="DR26eDf_CHubESm0xT07-18" value="Payment Module" style="text;html=1;align=center;verticalAlign=middle;whiteSpace=wrap;rounded=0;" parent="1" vertex="1">
          <mxGeometry x="740" y="110" width="150" height="30" as="geometry" />
        </mxCell>
        <mxCell id="DR26eDf_CHubESm0xT07-22" value="" style="edgeStyle=orthogonalEdgeStyle;rounded=0;orthogonalLoop=1;jettySize=auto;html=1;entryX=1;entryY=0.5;entryDx=0;entryDy=0;" parent="1" source="DR26eDf_CHubESm0xT07-19" target="DR26eDf_CHubESm0xT07-21" edge="1">
          <mxGeometry relative="1" as="geometry">
            <Array as="points">
              <mxPoint x="1160" y="360" />
            </Array>
          </mxGeometry>
        </mxCell>
        <mxCell id="DR26eDf_CHubESm0xT07-19" value="gateway" style="ellipse;shape=cloud;whiteSpace=wrap;html=1;rounded=1;" parent="1" vertex="1">
          <mxGeometry x="1090" y="210" width="120" height="80" as="geometry" />
        </mxCell>
        <mxCell id="DR26eDf_CHubESm0xT07-24" value="" style="edgeStyle=orthogonalEdgeStyle;rounded=0;orthogonalLoop=1;jettySize=auto;html=1;" parent="1" source="DR26eDf_CHubESm0xT07-21" target="DR26eDf_CHubESm0xT07-23" edge="1">
          <mxGeometry relative="1" as="geometry" />
        </mxCell>
        <mxCell id="DR26eDf_CHubESm0xT07-21" value="Controller (webhook)" style="whiteSpace=wrap;html=1;rounded=1;" parent="1" vertex="1">
          <mxGeometry x="850" y="350" width="120" height="60" as="geometry" />
        </mxCell>
        <mxCell id="uqwqq6Uy4NkdufYGTmNp-8" value="error" style="edgeStyle=orthogonalEdgeStyle;rounded=0;orthogonalLoop=1;jettySize=auto;html=1;entryX=1;entryY=0.5;entryDx=0;entryDy=0;" parent="1" source="DR26eDf_CHubESm0xT07-23" target="uqwqq6Uy4NkdufYGTmNp-7" edge="1">
          <mxGeometry relative="1" as="geometry" />
        </mxCell>
        <mxCell id="DR26eDf_CHubESm0xT07-23" value="update payment/log" style="whiteSpace=wrap;html=1;rounded=1;" parent="1" vertex="1">
          <mxGeometry x="650" y="350" width="120" height="60" as="geometry" />
        </mxCell>
        <mxCell id="DR26eDf_CHubESm0xT07-25" value="DB" style="shape=cylinder3;whiteSpace=wrap;html=1;boundedLbl=1;backgroundOutline=1;size=15;" parent="1" vertex="1">
          <mxGeometry x="140" y="450" width="60" height="80" as="geometry" />
        </mxCell>
        <mxCell id="DR26eDf_CHubESm0xT07-26" style="edgeStyle=orthogonalEdgeStyle;rounded=0;orthogonalLoop=1;jettySize=auto;html=1;" parent="1" source="uqwqq6Uy4NkdufYGTmNp-1" target="DR26eDf_CHubESm0xT07-25" edge="1">
          <mxGeometry relative="1" as="geometry" />
        </mxCell>
        <mxCell id="uqwqq6Uy4NkdufYGTmNp-2" value="" style="edgeStyle=orthogonalEdgeStyle;rounded=0;orthogonalLoop=1;jettySize=auto;html=1;" parent="1" source="DR26eDf_CHubESm0xT07-1" target="uqwqq6Uy4NkdufYGTmNp-1" edge="1">
          <mxGeometry relative="1" as="geometry">
            <mxPoint x="335" y="300" as="sourcePoint" />
            <mxPoint x="335" y="470" as="targetPoint" />
            <Array as="points">
              <mxPoint x="330" y="360" />
            </Array>
          </mxGeometry>
        </mxCell>
        <mxCell id="uqwqq6Uy4NkdufYGTmNp-1" value="repository" style="rounded=1;whiteSpace=wrap;html=1;" parent="1" vertex="1">
          <mxGeometry x="110" y="330" width="120" height="60" as="geometry" />
        </mxCell>
        <mxCell id="uqwqq6Uy4NkdufYGTmNp-7" value="pause subscription" style="whiteSpace=wrap;html=1;rounded=1;" parent="1" vertex="1">
          <mxGeometry x="260" y="400" width="120" height="60" as="geometry" />
        </mxCell>
      </root>
    </mxGraphModel>
  </diagram>
</mxfile>
